HIERARCHY
ROOT Hips
{
  OFFSET 57.8838 95.319 338.509
  CHANNELS 6 Xposition Yposition Zposition Zrotation Xrotation Yrotation
  JOINT LeftUpLeg
  {
    OFFSET 8.64259 1.95398 -2.38835
    CHANNELS 3 Zrotation Xrotation Yrotation
    JOINT LeftLeg
    {
      OFFSET 43.7702 0 0
      CHANNELS 3 Zrotation Xrotation Yrotation
      JOINT LeftFoot
      {
        OFFSET 40.6238 0 0
        CHANNELS 3 Zrotation Xrotation Yrotation
        JOINT LeftToeBase
        {
          OFFSET 12.7242 0 0
          CHANNELS 3 Zrotation Xrotation Yrotation
          End Site
          {
            OFFSET 0 0 0
          }
        }
      }
    }
  }
  JOINT RightUpLeg
  {
    OFFSET -8.2249 1.95398 -2.59336
    CHANNELS 3 Zrotation Xrotation Yrotation
    JOINT RightLeg
    {
      OFFSET 43.5653 0 0
      CHANNELS 3 Zrotation Xrotation Yrotation
      JOINT RightFoot
      {
        OFFSET 40.6238 0 0
        CHANNELS 3 Zrotation Xrotation Yrotation
        JOINT RightToeBase
        {
          OFFSET 12.7242 0 0
          CHANNELS 3 Zrotation Xrotation Yrotation
          End Site
          {
            OFFSET 0 0 0
          }
        }
      }
    }
  }
  JOINT Spine
  {
    OFFSET 0.165834 0.87714 6.61349
    CHANNELS 3 Zrotation Xrotation Yrotation
    JOINT Spine1
    {
      OFFSET 7.38963 1.71661e-005 0
      CHANNELS 3 Zrotation Xrotation Yrotation
      JOINT Spine2
      {
        OFFSET 11.9445 1.14441e-005 0
        CHANNELS 3 Zrotation Xrotation Yrotation
        JOINT Spine3
        {
          OFFSET 14.7254 4.19617e-005 0
          CHANNELS 3 Zrotation Xrotation Yrotation
          JOINT Spine4
          {
            OFFSET 10.9679 0 0
            CHANNELS 3 Zrotation Xrotation Yrotation
            JOINT RightShoulder
            {
              OFFSET 2.46616 -1.6653 3.69651
              CHANNELS 3 Zrotation Xrotation Yrotation
              JOINT RightArm
              {
                OFFSET 13.0012 0 0
                CHANNELS 3 Zrotation Xrotation Yrotation
                JOINT RightForeArm
                {
                  OFFSET 28.7848 1.62311e-005 0
                  CHANNELS 3 Zrotation Xrotation Yrotation
                  JOINT RightHand
                  {
                    OFFSET 26.5688 1.62095e-005 0
                    CHANNELS 3 Zrotation Xrotation Yrotation
                    End Site
                    {
                      OFFSET 0 0 0
                    }
                  }
                }
              }
            }
            JOINT LeftShoulder
            {
              OFFSET 2.38034 -1.29275 -3.7523
              CHANNELS 3 Zrotation Xrotation Yrotation
              JOINT LeftArm
              {
                OFFSET 16.3182 6.07031e-005 0
                CHANNELS 3 Zrotation Xrotation Yrotation
                JOINT LeftForeArm
                {
                  OFFSET 27.0901 0 0
                  CHANNELS 3 Zrotation Xrotation Yrotation
                  JOINT LeftHand
                  {
                    OFFSET 24.5451 1.51738e-005 0
                    CHANNELS 3 Zrotation Xrotation Yrotation
                    End Site
                    {
                      OFFSET 0 0 0
                    }
                  }
                }
              }
            }
            JOINT Neck
            {
              OFFSET 5.0226 -0.0266342 0
              CHANNELS 3 Zrotation Xrotation Yrotation
              JOINT Head
              {
                OFFSET 6.69364 2.86102e-005 0
                CHANNELS 3 Zrotation Xrotation Yrotation
                End Site
                {
                  OFFSET 0 0 0
                }
              }
            }
          }
        }
      }
    }
  }
}
MOTION
Frames:	12
Frame Time:	0.0416667
85.7093 96.9106 -108.578 -102.857 -47.1314 -98.9368 177.312 15.1059 85.2817 -17.0876 7.24326 0.717734 53.9283 -0.770566 6.49453 42.1294 6.54747 14.0106 172.966 -3.50347 93.9075 -28.5027 -5.63911 -1.21319 74.273 -7.64436 10.1659 30.9917 -2.90323 2.89887 0.649458 7.76579 -90.6035 11.3466 1.01105 -1.30321 -0.324628 0.952721 -1.34645 -22.8599 1.35595 -0.939125 -2.84725 1.35596 -0.939127 95.3656 -52.9931 -92.1689 18.9228 -13.1589 -15.1509 -3.64588 -11.7735 -26.0209 -10.4659 -0.444632 -0.22112 -84.1491 -56.4002 88.2195 -29.9416 -33.6379 -9.0232 7.11482 73.3643 0.0509025 1.03932 -0.0383603 -13.2543 12.1722 0.582845 -4.1167 -18.4293 0.401286 8.20274 
79.3171 96.0876 -102.62 -101.861 -45.8501 -97.1732 176.569 16.7542 86.5791 -6.40639 10.4369 0.654275 57.2421 -1.80734 4.28325 35.4499 2.75841 10.7635 172.937 -10.3468 94.3667 -25.6952 -5.54588 -1.66211 72.7645 -9.24435 11.0596 35.8225 -9.05659 2.30258 0.805603 7.73324 -90.5994 11.4136 1.32328 -1.32703 -0.2574 1.2636 -1.38399 -22.7952 1.66089 -0.867966 -2.78258 1.66091 -0.867972 94.8188 -53.4488 -92.924 16.1454 -14.1524 -19.6821 -5.24276 -12.5027 -27.9891 -9.18475 -0.416669 0.0905243 -83.7963 -56.7624 88.7504 -29.6819 -33.9255 -9.02358 7.46728 74.9628 0.0594444 -0.745144 0.0866688 -13.5588 12.2803 0.641239 -4.98373 -18.392 0.520058 9.30813 
72.1438 94.7312 -95.2913 -101.082 -45.3261 -96.9515 176.817 18.1648 85.9058 -12.6482 11.3582 0.333135 54.7726 -3.81283 5.00588 37.2074 3.66681 10.5388 172.706 -13.3817 92.9904 -30.5713 -8.57764 -2.47217 70.2344 -5.02929 13.4622 40.2283 -14.8042 1.45214 0.932912 7.60789 -90.325 11.6649 1.70321 -0.826216 -0.00528035 1.66519 -0.900399 -22.5489 1.87273 -0.275986 -2.53631 1.87276 -0.27599 94.9017 -54.4219 -92.6742 17.8473 -12.7409 -17.8548 -5.93281 -12.126 -30.1383 -11.0499 -0.544049 0.570022 -83.7328 -56.9437 88.8566 -31.1977 -36.041 -13.6006 10.7147 79.7153 0.0996732 0.138463 0.0944902 -12.7468 12.8761 -0.0513176 -6.1522 -18.149 0.230981 8.97477 
64.7835 93.8768 -87.2373 -101.459 -45.2158 -99.1601 176.716 18.839 82.6668 -25.8614 15.2952 0.747005 55.4694 -4.00567 12.0137 34.437 2.28923 0.829487 170.471 -10.4456 86.9092 -42.7203 -9.10318 -2.37603 58.3698 10.2453 22.6083 33.6264 -6.79331 -4.30641 0.848468 7.51665 -89.8661 11.8412 1.75026 0.0802301 0.171412 1.7521 0.00309912 -22.3724 1.64522 0.602691 -2.35971 1.64521 0.602692 95.2666 -54.2301 -92.1618 22.6968 -13.9605 -12.263 -6.29128 -12.7231 -29.8571 -10.7517 -0.502705 0.266309 -84.0778 -57.5089 88.4307 -31.8389 -36.5227 -17.5031 12.0883 79.4747 0.108994 2.26857 -0.0125939 -12.4368 14.2322 -0.282562 -5.94739 -18.7166 0.135454 7.90477 
58.3015 93.6816 -80.3079 -102.608 -44.7863 -100.712 178.168 14.9469 80.643 -32.9135 15.2343 0.737203 60.6396 1.72594 14.9284 34.9187 2.4851 -1.36963 171.971 -0.738994 89.0086 -61.2414 -15.8251 -2.17355 52.2353 13.9951 10.8666 27.8643 2.18694 -12.8404 0.54874 7.62633 -89.6415 11.6181 1.25948 0.581997 -0.0523702 1.28387 0.525987 -22.5899 1.02634 0.93362 -2.57727 1.02635 0.933636 95.1984 -54.0194 -92.2886 26.9006 -14.2221 -9.04051 -5.79634 -15.6479 -25.81 -7.90292 -0.413307 0.949381 -83.978 -56.2937 88.4496 -35.8655 -34.0544 -23.5817 12.0014 78.1612 0.0974091 3.14337 -0.0458479 -11.6121 16.0714 0.696005 -5.27386 -20.2477 0.745364 8.86098 
51.7923 95.0233 -73.4483 -103.944 -46.6693 -99.8703 179.28 6.77625 82.4807 -31.6783 18.534 1.75291 62.6842 4.68713 15.7857 38.6386 3.98691 -0.186219 171.653 11.5227 88.2642 -66.7201 -11.0992 -1.23748 56.832 8.53524 10.6968 27.0479 3.17122 -9.41616 0.0814571 7.63321 -89.9139 11.6094 0.202651 0.154631 -0.0616059 0.209277 0.145554 -22.5967 0.146818 0.208391 -2.58402 0.146801 0.208382 95.6045 -54.0304 -91.6879 28.9571 -11.5455 -5.8957 -3.31972 -18.0697 -20.2172 -8.2623 -0.443304 1.11358 -83.9662 -56.0145 88.4391 -38.8254 -29.5547 -30.2617 10.7383 76.0501 0.0647005 5.89459 -0.31779 -12.6872 13.1184 2.0286 -4.72853 -20.3269 1.62986 9.65568 
45.4807 96.0992 -66.9915 -103.896 -50.2828 -98.7184 -178.849 -0.818053 84.702 -28.2597 21.3081 2.20803 64.49 6.40155 13.6826 40.5193 4.75878 0.204529 170.356 18.2005 93.2201 -55.5369 -6.88917 0.788774 61.442 2.17717 10.364 30.2006 -1.8508 -7.32214 -0.313496 7.54374 -90.1345 11.7859 -0.686709 -0.196031 0.115087 -0.694663 -0.165627 -22.4211 -0.596043 -0.393358 -2.40848 -0.596039 -0.393367 95.9843 -54.4052 -91.0859 30.196 -9.45827 -0.927006 -0.921973 -16.5166 -17.3991 -10.4895 -0.793251 3.74954 -83.7111 -54.3563 88.6364 -39.4291 -22.2262 -34.3777 5.68344 71.4183 0.00771773 6.47165 -0.461935 -12.6113 11.0694 2.09474 -6.29731 -20.5529 1.80938 10.6936 
39.4081 96.5081 -60.9936 -102.049 -53.8252 -98.1355 -177.657 -6.45174 86.0932 -23.7127 24.2092 2.31636 63.7721 6.74135 11.8629 43.0186 6.04231 3.29078 171.986 20.3083 92.408 -30.6863 -1.02553 2.14222 62.5913 1.95536 12.7834 29.6667 -1.03387 -7.42788 -0.578966 7.4475 -90.1342 11.9787 -1.21433 -0.135917 0.308318 -1.21916 -0.0823226 -22.2308 -1.11735 -0.494626 -2.21814 -1.11736 -0.49464 95.7211 -55.0974 -91.393 30.9281 -7.49157 2.74566 0.581028 -16.7344 -13.9509 -8.66243 -0.552729 2.37031 -83.5283 -53.4632 88.8131 -37.6215 -15.0553 -37.8682 0.675924 67.3171 0.00274092 3.82786 -0.502634 -14.2989 10.2492 1.62202 -7.2096 -19.493 1.60029 10.7526 
33.0394 96.2364 -54.7356 -103.227 -57.546 -101.415 -177.091 -13.6462 86.7996 -19.9825 27.4529 3.01765 61.0843 6.18938 9.09309 48.9089 8.68321 3.5311 175.511 20.3212 89.5535 -14.28 4.517 -0.255471 64.853 5.74231 15.8251 29.168 -0.330338 -5.93989 -0.819674 7.54313 -90.0199 11.7894 -1.63939 0.133832 0.11949 -1.63191 0.205868 -22.4236 -1.60382 -0.365192 -2.41098 -1.60381 -0.365198 96.3908 -55.3392 -90.3915 31.9136 -5.20182 4.27025 1.30979 -18.3395 -11.0243 -6.04653 -0.383828 2.41342 -84.0692 -52.713 87.9469 -36.6154 -10.7873 -39.6465 -1.98032 65.3136 -0.26301 5.79089 -0.876369 -15.6514 10.6265 1.03591 -6.32802 -19.5005 0.961776 9.96605 
25.5719 94.8218 -47.6496 -103.414 -58.868 -100.822 -177.31 -15.7728 89.1295 -27.5201 29.2028 5.41615 58.6843 2.89708 5.24803 57.6944 12.7931 4.20576 174.026 21.9221 90.315 -20.5398 2.34469 1.33363 62.4921 8.22664 11.6149 26.1303 3.92917 -3.25035 -0.912299 7.46827 -90.3521 11.9364 -1.97977 -0.486383 0.266984 -1.99925 -0.398746 -22.2775 -1.74202 -1.05904 -2.2649 -1.74204 -1.05905 96.4709 -54.9496 -90.3145 31.1798 -3.47495 4.37249 2.4604 -19.3177 -7.85539 -3.95668 -0.260441 2.89248 -83.9402 -53.8596 88.255 -35.9517 -11.0063 -36.7363 -0.755029 68.379 -1.99222 5.198 -0.823805 -15.2715 10.9268 1.33246 -4.82657 -20.1562 0.681237 11.0117 
17.8467 93.8567 -40.3347 -102.429 -56.7231 -97.2973 -176.893 -10.8998 93.5683 -42.2009 22.7608 6.26389 50.7901 -7.35718 -1.32781 46.4071 8.19114 9.55023 172.448 22.0787 94.0819 -32.1127 -4.57296 3.7412 62.8985 4.43546 3.67054 23.0579 7.36874 1.4708 -0.755498 7.40231 -90.9086 12.0559 -1.93111 -1.60182 0.385518 -1.99973 -1.51528 -22.1484 -1.36052 -2.10804 -2.13577 -1.36052 -2.10805 96.444 -53.7761 -90.4748 29.2984 -4.02277 1.47472 3.00239 -19.8247 -6.76731 -4.41742 -0.314515 3.66052 -83.8351 -54.85 88.508 -38.1129 -16.1127 -31.0961 0.382114 71.1361 -0.487946 5.88341 -0.777705 -15.1286 12.1188 2.17032 -4.38281 -21.302 1.12685 12.2578 
10.7097 93.8884 -34.1056 -104.149 -56.754 -97.9264 -177.224 0.586402 91.7809 -58.2434 9.33026 5.68256 50.9528 -5.10442 5.28464 46.5291 9.07568 14.942 171.425 17.0924 96.1429 -37.4232 -1.82792 4.08365 68.7888 -1.03818 4.50932 25.3569 4.19615 3.12923 -0.57407 7.55183 -91.0539 11.7528 -1.63647 -1.92831 0.081599 -1.71976 -1.85444 -22.4457 -0.981469 -2.33081 -2.43304 -0.981458 -2.33081 96.4622 -54.2313 -90.4007 26.951 -5.14553 -2.09616 1.10401 -16.7594 -12.8949 -9.02254 -0.786489 5.21373 -84.4777 -55.0161 87.6072 -40.953 -22.7091 -29.7018 5.73633 77.6312 0.0380016 2.04197 -0.176327 -13.7571 12.6882 1.08312 -5.45463 -21.2382 0.703285 10.2161 
